<svg id="Layer_1" data-name="Layer 1" xmlns="http://www.w3.org/2000/svg" viewBox="0 0 673.26 104"><defs><style>.cls-1{fill:#fff;}</style></defs><title>logo turing-bus final</title><path class="cls-1" d="M74,43H59.74v57H45.48V43H31.23V28.78H74Z" transform="translate(-31.23 -10.38)"/><path class="cls-1" d="M145.29,85.81H131v14.26H102.52V85.81H88.26v-57h14.26v57H131v-57h14.26Z" transform="translate(-31.23 -10.38)"/><path class="cls-1" d="M216.58,57.29H202.32V71.55H173.81v28.52H159.55V28.78h42.77V43h14.26Zm-14.26,0V43H173.81V57.29Zm14.26,42.78H202.32V71.55h14.26Z" transform="translate(-31.23 -10.38)"/><path class="cls-1" d="M245.09,100.07H230.84V28.78h14.25Z" transform="translate(-31.23 -10.38)"/><path class="cls-1" d="M316.38,100.07H302.13V71.55H287.87V57.29H273.61v42.78H259.35V28.78h14.26V43h14.26V57.29h14.26V28.78h14.25Z" transform="translate(-31.23 -10.38)"/><path class="cls-1" d="M387.67,85.81H373.41v14.26H344.9V85.81H330.64V42.89H344.9V28.64h28.51V43H344.9V85.81h28.51V71.55H359.16V57.29h28.51Z" transform="translate(-31.23 -10.38)"/><path class="cls-1" d="M482.82,72.67l-62.26.19L420.4,21l31.13-.1L430.84,41.7l10.38,0,20.69-20.82,20.75-.06Zm-5.13,20.77a5.19,5.19,0,0,1,0-10.38,5.19,5.19,0,1,1,0,10.38Zm-15.56,0c-7,5.65-13.91,5.78-20.75.07l0-10.38,20.75-.06Zm-36.32.12a5.19,5.19,0,0,1,0-10.38,5.19,5.19,0,0,1,0,10.38Zm67.26-62.47L493,10.38l-83,.25.07,20.76-10.38,0,.07,20.75,10.37,0,.16,51.88,5.19,0,0,10.38,10.38,0,0-10.38,51.89-.16,0,10.38,10.37,0,0-10.38h5.19l-.16-51.89,10.38,0-.07-20.75Z" transform="translate(-31.23 -10.38)"/><path class="cls-1" d="M576.16,86.17H561.9v14.25H519.13V29.21H561.9V43.46h14.26V57.72H561.9V72l14.26-.07ZM561.9,57.72V43.46H533.39V57.72Zm0,28.45V71.91L533.39,72V86.17Z" transform="translate(-31.23 -10.38)"/><path class="cls-1" d="M647.45,86.17H633.19v14.25H604.68V86.17H590.42v-57h14.26v57h28.51v-57h14.26Z" transform="translate(-31.23 -10.38)"/><path class="cls-1" d="M704.48,86.17H690.22v14.25H661.71V86.17h28.51V71.91H676V57.65H661.71V43.46L676,43.39V29.21h28.51V43.46H676V57.65h14.25V71.91h14.26Z" transform="translate(-31.23 -10.38)"/></svg>