<?xml version="1.0" encoding="utf-8"?>
<!-- Generator: Adobe Illustrator 22.0.1, SVG Export Plug-In . SVG Version: 6.00 Build 0)  -->
<svg version="1.1" id="Layer_1" xmlns="http://www.w3.org/2000/svg" xmlns:xlink="http://www.w3.org/1999/xlink" x="0px" y="0px"
	 viewBox="0 0 735 123.7" style="enable-background:new 0 0 735 123.7;" xml:space="preserve">
<style type="text/css">
	.st0{fill:#FFFFFF;}
</style>
<g>
	<path class="st0" d="M74,43H59.7v57H45.5V43H31.2V28.8H74V43z"/>
	<path class="st0" d="M145.3,85.8H131v14.3h-28.5V85.8H88.3v-57h14.3v57H131v-57h14.3V85.8z"/>
	<path class="st0" d="M216.6,57.3h-14.3v14.3h-28.5v28.5h-14.3V28.8h42.8V43h14.3V57.3z M202.3,57.3V43h-28.5v14.3H202.3z
		 M216.6,100.1h-14.3V71.6h14.3V100.1z"/>
	<path class="st0" d="M245.1,100.1h-14.3V28.8h14.3V100.1z"/>
	<path class="st0" d="M316.4,100.1h-14.3V71.6h-14.3V57.3h-14.3v42.8h-14.3V28.8h14.3V43h14.3v14.3h14.3V28.8h14.3V100.1z"/>
	<path class="st0" d="M387.7,85.8h-14.3v14.3h-28.5V85.8h-14.3V42.9h14.3V28.6h28.5V43h-28.5v42.8h28.5V71.6h-14.3V57.3h28.5V85.8z"
		/>
</g>
<path class="st0" d="M482.8,72.7l-62.3,0.2L420.4,21l31.1-0.1l-20.7,20.8l10.4,0l20.7-20.8l20.8-0.1L482.8,72.7z M477.7,93.4
	c-2.6,0-5.2-2.1-5.2-5.2s2.6-5.2,5.2-5.2c3.1,0,5.2,2.1,5.2,5.2S480.8,93.4,477.7,93.4z M462.1,93.5c-7,5.6-13.9,5.8-20.8,0.1
	l0-10.4l20.8-0.1L462.1,93.5z M425.8,93.6c-2.6,0-5.2-2.1-5.2-5.2c0-3.1,2.6-5.2,5.2-5.2c3.1,0,5.2,2.1,5.2,5.2
	C431,91.5,428.9,93.6,425.8,93.6z M493.1,31.1L493,10.4l-83,0.3l0.1,20.8l-10.4,0l0.1,20.8l10.4,0l0.2,51.9l5.2,0l0,10.4l10.4,0
	l0-10.4l51.9-0.2l0,10.4l10.4,0l0-10.4l5.2,0l-0.2-51.9l10.4,0l-0.1-20.8L493.1,31.1z"/>
<g>
	<path class="st0" d="M576.2,86.2h-14.3v14.3h-42.8V29.2h42.8v14.3h14.3v14.3h-14.3V72l14.3-0.1V86.2z M561.9,57.7V43.5h-28.5v14.3
		H561.9z M561.9,86.2V71.9L533.4,72v14.2H561.9z"/>
	<path class="st0" d="M647.5,86.2h-14.3v14.3h-28.5V86.2h-14.3v-57h14.3v57h28.5v-57h14.3V86.2z"/>
	<path class="st0" d="M704.5,86.2h-14.3v14.3h-28.5V86.2h28.5V71.9H676V57.6h-14.3V43.5l14.3-0.1V29.2h28.5v14.3H676v14.2h14.3v14.3
		h14.3V86.2z"/>
</g>
</svg>
