<svg id="LOGO" xmlns="http://www.w3.org/2000/svg" xmlns:xlink="http://www.w3.org/1999/xlink" viewBox="0 0 195.5 124.15"><defs><style>.cls-1{fill:#fff;}.cls-2{fill:url(#Unbenannter_Verlauf_1012);}.cls-3{fill:#181716;}</style><radialGradient id="Unbenannter_Verlauf_1012" cx="8.17" cy="6.47" r="246.92" gradientUnits="userSpaceOnUse"><stop offset="0.35" stop-color="#e73e07"/><stop offset="0.35" stop-color="#e74107"/><stop offset="0.49" stop-color="#ee7302"/><stop offset="0.56" stop-color="#f18700"/><stop offset="0.77" stop-color="#e5007d"/></radialGradient></defs><title>WJLogo_2018_4C_RZ</title><path class="cls-1" d="M24.05,149.24V53h195.4v83a13,13,0,0,1-13.27,13.28Z" transform="translate(-24 -25.14)"/><path class="cls-2" d="M27.3,75.67H216.2V135.6A10.32,10.32,0,0,1,205.81,146H27.3ZM24,53v96.33H206.18A13.05,13.05,0,0,0,219.5,136V53Z" transform="translate(-24 -25.14)"/><path class="cls-3" d="M37.09,38.74v3.88H35.85V38.74h-.52v-1h.52v-.62a1.35,1.35,0,0,1,1.45-1.42H38v1h-.49c-.3,0-.43.16-.43.45v.54H38v1Z" transform="translate(-24 -25.14)"/><polygon class="cls-3" points="11.29 0.04 11.29 6.84 15.78 6.84 15.78 5.66 12.62 5.66 12.62 4 15.31 4 15.31 2.82 12.62 2.82 12.62 1.22 15.78 1.22 15.78 0.04 11.29 0.04"/><path class="cls-3" d="M41.1,32h1.24V27H41.1Zm0-5.83h1.27v-1H41.08Z" transform="translate(-24 -25.14)"/><path class="cls-3" d="M46.73,32V29a.83.83,0,1,0-1.65,0v3H43.84V27h1.21v.46a1.69,1.69,0,0,1,1.24-.52,1.62,1.62,0,0,1,1.18.44A1.86,1.86,0,0,1,48,28.8V32Z" transform="translate(-24 -25.14)"/><path class="cls-3" d="M52.18,28.49a.92.92,0,0,0-1.66,0,1.33,1.33,0,0,0-.12.53h1.9a1.33,1.33,0,0,0-.12-.53M50.4,29.87A1,1,0,0,0,51.49,31a1.38,1.38,0,0,0,1.13-.46l.76.73a2.38,2.38,0,0,1-1.9.78c-1.17,0-2.3-.53-2.3-2.55,0-1.62.88-2.54,2.17-2.54a2.14,2.14,0,0,1,2.17,2.38v.55Z" transform="translate(-24 -25.14)"/><rect class="cls-3" x="33.21" y="0.04" width="1.33" height="6.8"/><path class="cls-3" d="M63,32V29a.83.83,0,1,0-1.65,0v3H60.14V27h1.22v.46a1.67,1.67,0,0,1,1.24-.52,1.58,1.58,0,0,1,1.17.44,1.86,1.86,0,0,1,.51,1.42V32Z" transform="translate(-24 -25.14)"/><path class="cls-3" d="M65.73,32H67V27H65.73Zm0-5.83H67v-1H65.72Z" transform="translate(-24 -25.14)"/><path class="cls-3" d="M70,32a1.35,1.35,0,0,1-1.44-1.43V28.09h-.52v-.95h.52V25.67h1.24v1.47h.88v.95h-.88v2.39a.4.4,0,0,0,.43.45h.45V32Z" transform="translate(-24 -25.14)"/><path class="cls-3" d="M72,32H73.2V27H72Zm0-5.83h1.27v-1H71.94Z" transform="translate(-24 -25.14)"/><path class="cls-3" d="M77.22,29.87h-1c-.45,0-.7.21-.7.57s.23.57.72.57a1,1,0,0,0,.78-.24.82.82,0,0,0,.18-.63Zm0,2.11v-.43A1.52,1.52,0,0,1,76,32a1.67,1.67,0,0,1-1.27-.45,1.56,1.56,0,0,1-.42-1.11c0-.8.55-1.45,1.71-1.45h1.17v-.24c0-.55-.27-.79-.93-.79a1.08,1.08,0,0,0-1,.41l-.79-.77a2.06,2.06,0,0,1,1.79-.69c1.4,0,2.12.59,2.12,1.76V32Z" transform="translate(-24 -25.14)"/><path class="cls-3" d="M81.47,32A1.35,1.35,0,0,1,80,30.55V28.09h-.52v-.95H80V25.67h1.24v1.47h.88v.95h-.88v2.39a.4.4,0,0,0,.43.45h.45V32Z" transform="translate(-24 -25.14)"/><path class="cls-3" d="M83.4,32h1.24V27H83.4Zm0-5.83h1.27v-1H83.38Z" transform="translate(-24 -25.14)"/><polygon class="cls-3" points="64.29 6.84 63.31 6.84 61.48 1.86 62.79 1.86 63.8 4.94 64.8 1.86 66.11 1.86 64.29 6.84"/><path class="cls-3" d="M93.62,28.49a.92.92,0,0,0-1.66,0,1.33,1.33,0,0,0-.12.53h1.9a1.33,1.33,0,0,0-.12-.53m-1.78,1.38A1,1,0,0,0,92.93,31a1.38,1.38,0,0,0,1.13-.46l.76.73a2.38,2.38,0,0,1-1.9.78c-1.17,0-2.3-.53-2.3-2.55,0-1.62.88-2.54,2.17-2.54A2.14,2.14,0,0,1,95,29.32v.55Z" transform="translate(-24 -25.14)"/><path class="cls-3" d="M100.43,28.06c-.75,0-.85.61-.85,1.42s.1,1.44.85,1.44.85-.62.85-1.44-.11-1.42-.85-1.42m.88,3.92v-.47a1.51,1.51,0,0,1-1.24.52,1.74,1.74,0,0,1-1.22-.45,2.94,2.94,0,0,1-.51-2.1,2.94,2.94,0,0,1,.51-2.09,1.71,1.71,0,0,1,1.21-.45,1.52,1.52,0,0,1,1.22.5V25.18h1.24V32Z" transform="translate(-24 -25.14)"/><path class="cls-3" d="M106.78,28.49a.92.92,0,0,0-1.66,0A1.33,1.33,0,0,0,105,29h1.89a1.17,1.17,0,0,0-.11-.53M105,29.87A1,1,0,0,0,106.09,31a1.38,1.38,0,0,0,1.13-.46l.75.73a2.34,2.34,0,0,1-1.89.78c-1.17,0-2.3-.53-2.3-2.55,0-1.62.88-2.54,2.17-2.54a2.14,2.14,0,0,1,2.17,2.38v.55Z" transform="translate(-24 -25.14)"/><path class="cls-3" d="M111,32a2.7,2.7,0,0,1-2.12-.71l.82-.82A1.76,1.76,0,0,0,111,31c.43,0,.88-.14.88-.51s-.13-.42-.52-.46l-.79-.08c-.89-.08-1.45-.48-1.45-1.39a1.71,1.71,0,0,1,1.92-1.59,2.66,2.66,0,0,1,1.9.58l-.76.78a1.74,1.74,0,0,0-1.16-.34c-.49,0-.7.23-.7.48s.07.39.51.43l.79.08c1,.09,1.48.62,1.48,1.46,0,1.1-.94,1.62-2.12,1.62" transform="translate(-24 -25.14)"/><path class="cls-3" d="M119.42,29.12H118v1.67h1.38a.84.84,0,1,0,0-1.67m-.08-2.76H118v1.57h1.3a.79.79,0,1,0,0-1.57m.22,5.62h-2.85v-6.8h2.73a1.86,1.86,0,0,1,2.11,1.91,1.56,1.56,0,0,1-.85,1.4,1.58,1.58,0,0,1,.94,1.53,1.88,1.88,0,0,1-2.08,2" transform="translate(-24 -25.14)"/><path class="cls-3" d="M125.88,32v-.46a1.7,1.7,0,0,1-1.24.51,1.63,1.63,0,0,1-1.17-.43,1.87,1.87,0,0,1-.51-1.42V27h1.24v3a.83.83,0,1,0,1.65,0V27h1.25v5Z" transform="translate(-24 -25.14)"/><path class="cls-3" d="M131.5,32V29a.83.83,0,1,0-1.65,0v3h-1.24V27h1.21v.46a1.71,1.71,0,0,1,1.25-.52,1.61,1.61,0,0,1,1.17.44,1.86,1.86,0,0,1,.51,1.42V32Z" transform="translate(-24 -25.14)"/><path class="cls-3" d="M136.07,28.06c-.74,0-.84.61-.84,1.42s.1,1.44.84,1.44.85-.62.85-1.44-.1-1.42-.85-1.42M137,32v-.47a1.49,1.49,0,0,1-1.23.52,1.72,1.72,0,0,1-1.22-.45,2.94,2.94,0,0,1-.51-2.1,2.94,2.94,0,0,1,.51-2.09,1.7,1.7,0,0,1,1.21-.45,1.49,1.49,0,0,1,1.21.5V25.18h1.25V32Z" transform="translate(-24 -25.14)"/><path class="cls-3" d="M142.43,28.49a.87.87,0,0,0-.83-.52.86.86,0,0,0-.83.52,1.33,1.33,0,0,0-.12.53h1.89a1.52,1.52,0,0,0-.11-.53m-1.78,1.38A1,1,0,0,0,141.74,31a1.41,1.41,0,0,0,1.13-.46l.75.73a2.34,2.34,0,0,1-1.89.78c-1.17,0-2.3-.53-2.3-2.55,0-1.62.88-2.54,2.17-2.54a2.14,2.14,0,0,1,2.17,2.38v.55Z" transform="translate(-24 -25.14)"/><path class="cls-3" d="M146.66,32a2.7,2.7,0,0,1-2.12-.71l.81-.82a1.79,1.79,0,0,0,1.33.47c.43,0,.88-.14.88-.51S147.43,30,147,30l-.79-.08c-.9-.08-1.45-.48-1.45-1.39a1.71,1.71,0,0,1,1.92-1.59,2.69,2.69,0,0,1,1.9.58l-.76.78A1.74,1.74,0,0,0,146.7,28c-.5,0-.71.23-.71.48s.08.39.52.43l.78.08c1,.09,1.48.62,1.48,1.46,0,1.1-.93,1.62-2.11,1.62" transform="translate(-24 -25.14)"/><path class="cls-3" d="M155.72,32V29a.83.83,0,1,0-1.65,0v3h-1.24V29a.8.8,0,0,0-.82-.91.81.81,0,0,0-.84.91v3h-1.24V27h1.22v.46a1.71,1.71,0,0,1,1.24-.52,1.56,1.56,0,0,1,1.32.63,1.9,1.9,0,0,1,1.49-.63,1.73,1.73,0,0,1,1.22.44A1.88,1.88,0,0,1,157,28.8V32Z" transform="translate(-24 -25.14)"/><path class="cls-3" d="M158.42,32h1.24V27h-1.24Zm0-5.83h1.27v-1H158.4Z" transform="translate(-24 -25.14)"/><path class="cls-3" d="M164.06,32V29a.8.8,0,0,0-.82-.91.81.81,0,0,0-.84.91v3h-1.24V27h1.22v.46a1.67,1.67,0,0,1,1.24-.52,1.59,1.59,0,0,1,1.17.44,1.86,1.86,0,0,1,.51,1.42V32Z" transform="translate(-24 -25.14)"/><path class="cls-3" d="M166.75,32H168V27h-1.25Zm0-5.83H168v-1h-1.27Z" transform="translate(-24 -25.14)"/><path class="cls-3" d="M171.13,32a2.7,2.7,0,0,1-2.12-.71l.81-.82a1.78,1.78,0,0,0,1.33.47c.43,0,.88-.14.88-.51s-.14-.42-.53-.46l-.78-.08c-.9-.08-1.45-.48-1.45-1.39a1.71,1.71,0,0,1,1.92-1.59,2.69,2.69,0,0,1,1.9.58l-.77.78a1.69,1.69,0,0,0-1.15-.34c-.5,0-.71.23-.71.48s.08.39.52.43l.78.08c1,.09,1.48.62,1.48,1.46,0,1.1-.94,1.62-2.11,1.62" transform="translate(-24 -25.14)"/><path class="cls-3" d="M175.86,32a1.35,1.35,0,0,1-1.44-1.43V28.09h-.53v-.95h.53V25.67h1.24v1.47h.88v.95h-.88v2.39c0,.28.13.45.43.45h.45V32Z" transform="translate(-24 -25.14)"/><path class="cls-3" d="M180.5,28.49a.92.92,0,0,0-1.66,0,1.52,1.52,0,0,0-.12.53h1.9a1.33,1.33,0,0,0-.12-.53m-1.78,1.38a1,1,0,0,0,1.1,1.11,1.37,1.37,0,0,0,1.12-.46l.76.73a2.37,2.37,0,0,1-1.89.78c-1.18,0-2.31-.53-2.31-2.55,0-1.62.88-2.54,2.17-2.54a2.14,2.14,0,0,1,2.17,2.38v.55Z" transform="translate(-24 -25.14)"/><path class="cls-3" d="M185.81,28.36a.83.83,0,0,0-1.46.62v3h-1.24V27h1.21v.48a1.67,1.67,0,0,1,1.25-.54,1.5,1.5,0,0,1,1.17.47Z" transform="translate(-24 -25.14)"/><path class="cls-3" d="M187.57,32h1.24V27h-1.24Zm0-5.83h1.27v-1h-1.27Z" transform="translate(-24 -25.14)"/><path class="cls-3" d="M193.17,32v-.46a1.7,1.7,0,0,1-1.24.51,1.64,1.64,0,0,1-1.17-.43,1.87,1.87,0,0,1-.51-1.42V27h1.24v3a.83.83,0,1,0,1.66,0V27h1.24v5Z" transform="translate(-24 -25.14)"/><path class="cls-3" d="M201.69,32V29a.83.83,0,1,0-1.65,0v3H198.8V29a.83.83,0,1,0-1.66,0v3H195.9V27h1.21v.46a1.75,1.75,0,0,1,1.25-.52,1.56,1.56,0,0,1,1.32.63,1.88,1.88,0,0,1,1.49-.63,1.73,1.73,0,0,1,1.22.44,1.88,1.88,0,0,1,.54,1.42V32Z" transform="translate(-24 -25.14)"/><path class="cls-3" d="M206,32a2.7,2.7,0,0,1-2.12-.71l.81-.82A1.79,1.79,0,0,0,206,31c.43,0,.88-.14.88-.51s-.13-.42-.53-.46l-.78-.08c-.9-.08-1.45-.48-1.45-1.39a1.71,1.71,0,0,1,1.92-1.59,2.69,2.69,0,0,1,1.9.58l-.76.78a1.74,1.74,0,0,0-1.16-.34c-.5,0-.71.23-.71.48s.08.39.52.43l.78.08c1,.09,1.48.62,1.48,1.46,0,1.1-.93,1.62-2.11,1.62" transform="translate(-24 -25.14)"/><path class="cls-3" d="M41.59,35.54h1.06v1.19H41.59Zm-2.11,0h1.06v1.19H39.48Zm2.45,7v-.46a1.71,1.71,0,0,1-1.25.52,1.61,1.61,0,0,1-1.17-.44A1.85,1.85,0,0,1,39,40.73V37.54h1.24v3a.83.83,0,1,0,1.66,0v-3h1.24v5Z" transform="translate(-24 -25.14)"/><path class="cls-3" d="M47.34,38.9a.85.85,0,0,0-.66-.29.82.82,0,0,0-.81.91v3H44.63v-5h1.21V38a1.72,1.72,0,0,1,1.26-.53,1.48,1.48,0,0,1,1.17.47Z" transform="translate(-24 -25.14)"/><path class="cls-3" d="M54.2,39.67H52.81v1.67H54.2a.84.84,0,1,0,0-1.67m-.09-2.76h-1.3v1.56h1.3c.57,0,.88-.31.88-.78s-.31-.78-.88-.78m.22,5.61H51.48v-6.8h2.74a1.86,1.86,0,0,1,2.1,1.91A1.59,1.59,0,0,1,55.48,39a1.58,1.58,0,0,1,.94,1.52,1.88,1.88,0,0,1-2.09,2" transform="translate(-24 -25.14)"/><path class="cls-3" d="M57.77,37.54H59v5H57.77Zm0-1.86H59v1H57.75Z" transform="translate(-24 -25.14)"/><path class="cls-3" d="M61.9,42.52a1.35,1.35,0,0,1-1.45-1.42V35.72h1.24V41c0,.3.12.45.44.45h.48v1.05Z" transform="translate(-24 -25.14)"/><path class="cls-3" d="M65.57,38.61c-.74,0-.84.61-.84,1.42s.1,1.43.84,1.43.85-.62.85-1.43-.1-1.42-.85-1.42m.88,3.91v-.46a1.49,1.49,0,0,1-1.23.52A1.76,1.76,0,0,1,64,42.13a3,3,0,0,1-.5-2.1,3,3,0,0,1,.5-2.09,1.74,1.74,0,0,1,1.22-.45,1.49,1.49,0,0,1,1.21.49V35.72h1.24v6.8Z" transform="translate(-24 -25.14)"/><path class="cls-3" d="M72,42.52v-.46a1.67,1.67,0,0,1-1.24.52,1.62,1.62,0,0,1-1.18-.44,1.84,1.84,0,0,1-.5-1.41V37.54h1.24v3a.83.83,0,1,0,1.65,0v-3h1.24v5Z" transform="translate(-24 -25.14)"/><path class="cls-3" d="M77.62,42.52v-3a.83.83,0,1,0-1.65,0v3H74.73v-5h1.21V38a1.7,1.7,0,0,1,1.24-.51,1.62,1.62,0,0,1,1.18.44,1.84,1.84,0,0,1,.5,1.41v3.18Z" transform="translate(-24 -25.14)"/><path class="cls-3" d="M82.14,38.61c-.73,0-.81.63-.81,1.29s.08,1.29.81,1.29.82-.63.82-1.29-.08-1.29-.82-1.29M82,44.41a2.36,2.36,0,0,1-1.81-.65L81,43a1.24,1.24,0,0,0,1,.38.93.93,0,0,0,1-1v-.5a1.44,1.44,0,0,1-1.18.49,1.66,1.66,0,0,1-1.19-.44,2.61,2.61,0,0,1-.5-2,2.61,2.61,0,0,1,.5-2,1.68,1.68,0,0,1,1.2-.44A1.45,1.45,0,0,1,83,38v-.46h1.21v4.79A2,2,0,0,1,82,44.41" transform="translate(-24 -25.14)"/><path class="cls-3" d="M90.88,42.52v-.46a1.7,1.7,0,0,1-1.24.52,1.62,1.62,0,0,1-1.18-.44A1.85,1.85,0,0,1,88,40.73V37.54H89.2v3a.83.83,0,1,0,1.65,0v-3h1.24v5Z" transform="translate(-24 -25.14)"/><path class="cls-3" d="M96.48,42.52v-3a.83.83,0,1,0-1.65,0v3H93.58v-5H94.8V38A1.7,1.7,0,0,1,96,37.49a1.58,1.58,0,0,1,1.17.44,1.81,1.81,0,0,1,.51,1.41v3.18Z" transform="translate(-24 -25.14)"/><path class="cls-3" d="M101,38.61c-.75,0-.84.61-.84,1.42s.09,1.43.84,1.43.85-.62.85-1.43-.11-1.42-.85-1.42m.88,3.91v-.46a1.51,1.51,0,0,1-1.24.52,1.76,1.76,0,0,1-1.22-.45A3,3,0,0,1,99,40a2.91,2.91,0,0,1,.5-2.09,1.73,1.73,0,0,1,1.21-.45,1.51,1.51,0,0,1,1.22.49V35.72h1.24v6.8Z" transform="translate(-24 -25.14)"/><polygon class="cls-3" points="84.35 11.77 84.35 13.44 87.03 13.44 87.03 14.63 84.35 14.63 84.35 17.39 83.02 17.39 83.02 10.58 87.5 10.58 87.5 11.77 84.35 11.77"/><path class="cls-3" d="M114.82,38.82a.82.82,0,0,0-.59-.21.75.75,0,0,0-.57.21,1.68,1.68,0,0,0-.29,1.21,1.68,1.68,0,0,0,.29,1.21.72.72,0,0,0,.57.22.78.78,0,0,0,.59-.22A1.69,1.69,0,0,0,115.1,40a1.69,1.69,0,0,0-.28-1.21m1,3.15a2.07,2.07,0,0,1-1.55.61A2,2,0,0,1,112.7,42a2.53,2.53,0,0,1-.57-1.94,2.52,2.52,0,0,1,.57-1.93,2,2,0,0,1,1.53-.61,2,2,0,0,1,1.55.61,2.52,2.52,0,0,1,.57,1.93,2.53,2.53,0,0,1-.57,1.94" transform="translate(-24 -25.14)"/><path class="cls-3" d="M120.33,38.9a.83.83,0,0,0-1.46.62v3h-1.24v-5h1.21V38a1.71,1.71,0,0,1,1.25-.53,1.5,1.5,0,0,1,1.18.47Z" transform="translate(-24 -25.14)"/><path class="cls-3" d="M123.61,42.58a2.7,2.7,0,0,1-2.12-.72l.81-.81a1.82,1.82,0,0,0,1.33.47c.43,0,.88-.14.88-.52s-.14-.42-.53-.45l-.78-.08c-.9-.09-1.45-.48-1.45-1.4s.9-1.58,1.92-1.58a2.64,2.64,0,0,1,1.9.58l-.77.77a1.74,1.74,0,0,0-1.15-.33c-.5,0-.71.23-.71.48s.08.39.52.43l.78.07c1,.1,1.48.63,1.48,1.47,0,1.09-.93,1.62-2.11,1.62" transform="translate(-24 -25.14)"/><path class="cls-3" d="M128.84,42.58c-1,0-2.23-.54-2.23-2.55s1.23-2.54,2.23-2.54a2.12,2.12,0,0,1,1.64.67l-.84.84a1,1,0,0,0-.8-.39.86.86,0,0,0-.71.32,1.69,1.69,0,0,0-.28,1.1,1.72,1.72,0,0,0,.28,1.11.86.86,0,0,0,.71.32,1,1,0,0,0,.8-.39l.84.83a2.13,2.13,0,0,1-1.64.68" transform="translate(-24 -25.14)"/><path class="cls-3" d="M134.4,42.52v-3a.81.81,0,1,0-1.62,0v3h-1.24v-6.8h1.24V38a1.68,1.68,0,0,1,1.2-.51,1.61,1.61,0,0,1,1.66,1.81v3.22Z" transform="translate(-24 -25.14)"/><path class="cls-3" d="M139.94,42.52v-.46a1.67,1.67,0,0,1-1.24.52,1.62,1.62,0,0,1-1.18-.44,1.84,1.84,0,0,1-.5-1.41V37.54h1.24v3a.83.83,0,1,0,1.65,0v-3h1.25v5Z" transform="translate(-24 -25.14)"/><path class="cls-3" d="M145.54,42.52v-3a.83.83,0,1,0-1.65,0v3h-1.24v-5h1.21V38a1.71,1.71,0,0,1,1.24-.51,1.62,1.62,0,0,1,1.18.44,1.84,1.84,0,0,1,.5,1.41v3.18Z" transform="translate(-24 -25.14)"/><path class="cls-3" d="M150.06,38.61c-.73,0-.81.63-.81,1.29s.08,1.29.81,1.29.82-.63.82-1.29-.08-1.29-.82-1.29m-.12,5.8a2.36,2.36,0,0,1-1.81-.65l.78-.79a1.24,1.24,0,0,0,1,.38.93.93,0,0,0,1-1v-.5a1.44,1.44,0,0,1-1.18.49,1.62,1.62,0,0,1-1.18-.44,2.57,2.57,0,0,1-.51-2,2.57,2.57,0,0,1,.51-2,1.64,1.64,0,0,1,1.19-.44,1.44,1.44,0,0,1,1.21.52v-.46h1.21v4.79a2,2,0,0,1-2.19,2.07" transform="translate(-24 -25.14)"/><path class="cls-1" d="M87.3,65.34l-.81-.08c-.39,0-.54-.19-.54-.45s.22-.5.74-.5a1.78,1.78,0,0,1,1.2.35l.79-.81a2.79,2.79,0,0,0-2-.6c-1.06,0-2,.57-2,1.65s.58,1.36,1.49,1.45l.83.08c.42,0,.55.22.55.48s-.47.53-.91.53A1.87,1.87,0,0,1,85.29,67l-.85.84a2.82,2.82,0,0,0,2.21.75c1.22,0,2.19-.55,2.19-1.69C88.84,66,88.33,65.44,87.3,65.34Z" transform="translate(-24 -25.14)"/><path class="cls-1" d="M94.82,64.41a1,1,0,0,1,.83.41l.87-.88a2.2,2.2,0,0,0-1.7-.69c-1,0-2.32.54-2.32,2.64s1.28,2.66,2.32,2.66a2.18,2.18,0,0,0,1.7-.71L95.65,67a1.07,1.07,0,0,1-.83.4.92.92,0,0,1-.74-.33,1.8,1.8,0,0,1-.29-1.16,1.75,1.75,0,0,1,.29-1.14A.9.9,0,0,1,94.82,64.41Z" transform="translate(-24 -25.14)"/><path class="cls-1" d="M102.91,63.25a1.66,1.66,0,0,0-1.26.54V61.41h-1.29v7.08h1.29V65.36a.84.84,0,0,1,.87-1,.84.84,0,0,1,.85,1v3.13h1.29V65.18a1.92,1.92,0,0,0-.52-1.47A1.69,1.69,0,0,0,102.91,63.25Z" transform="translate(-24 -25.14)"/><path class="cls-1" d="M79,63.25a1.78,1.78,0,0,0-1.29.54v-.48H76.42v5.18h1.29V65.36a.84.84,0,0,1,.87-1,.84.84,0,0,1,.85,1v3.13h1.29V65.18a1.92,1.92,0,0,0-.52-1.47A1.69,1.69,0,0,0,79,63.25Z" transform="translate(-24 -25.14)"/><path class="cls-1" d="M54.93,65.34l-.82-.08c-.39,0-.54-.19-.54-.45s.22-.5.74-.5a1.77,1.77,0,0,1,1.2.35l.8-.81a2.83,2.83,0,0,0-2-.6c-1,0-2,.57-2,1.65s.58,1.36,1.49,1.45l.84.08c.41,0,.54.22.54.48s-.46.53-.91.53A1.89,1.89,0,0,1,52.91,67l-.85.84a2.82,2.82,0,0,0,2.21.75c1.22,0,2.2-.55,2.2-1.69C56.47,66,56,65.44,54.93,65.34Z" transform="translate(-24 -25.14)"/><rect class="cls-1" x="23.01" y="38.32" width="1.29" height="5.03"/><rect class="cls-1" x="22.98" y="36.23" width="1.32" height="1.05"/><polygon class="cls-1" points="16.84 40.74 15.55 36.27 14.52 36.27 13.23 40.74 12.13 36.27 10.69 36.27 12.58 43.35 13.73 43.35 15.04 39.06 16.34 43.35 17.49 43.35 19.39 36.27 17.95 36.27 16.84 40.74"/><path class="cls-1" d="M70.14,63.25c-1.34,0-2.26,1-2.26,2.64,0,2.1,1.18,2.66,2.4,2.66a2.44,2.44,0,0,0,2-.82L71.46,67a1.48,1.48,0,0,1-1.17.48,1.05,1.05,0,0,1-1.13-1.15H72.4v-.55A2.23,2.23,0,0,0,70.14,63.25Zm-1,2.16a1.26,1.26,0,0,1,.12-.55,1,1,0,0,1,1.72,0,1.26,1.26,0,0,1,.12.55Z" transform="translate(-24 -25.14)"/><path class="cls-1" d="M110.6,63.25a2.17,2.17,0,0,0-1.86.73l.81.81a1.15,1.15,0,0,1,1-.45c.68,0,1,.25,1,.82v.25h-1.2c-1.22,0-1.79.68-1.79,1.51a1.66,1.66,0,0,0,.43,1.16,1.76,1.76,0,0,0,1.32.46,1.58,1.58,0,0,0,1.27-.5v.45h1.26V65.08C112.8,63.86,112.06,63.25,110.6,63.25Zm.91,3.33a.78.78,0,0,1-.2.65,1,1,0,0,1-.76.25c-.54,0-.79-.23-.79-.58s.25-.6.77-.6h1Z" transform="translate(-24 -25.14)"/><path class="cls-1" d="M62.69,65.34l-.82-.08c-.39,0-.54-.19-.54-.45s.22-.5.74-.5a1.75,1.75,0,0,1,1.2.35l.8-.81a2.81,2.81,0,0,0-2-.6c-1.05,0-2,.57-2,1.65s.58,1.36,1.49,1.45l.84.08c.42,0,.54.22.54.48s-.46.53-.91.53A1.89,1.89,0,0,1,60.67,67l-.85.84a2.83,2.83,0,0,0,2.21.75c1.22,0,2.2-.55,2.2-1.69C64.23,66,63.71,65.44,62.69,65.34Z" transform="translate(-24 -25.14)"/><path class="cls-1" d="M117.19,62.81v.65h-.54v1h.54v4h1.29v-4h1v-1h-1v-.57c0-.3.14-.47.44-.47h.51V61.33h-.73A1.41,1.41,0,0,0,117.19,62.81Z" transform="translate(-24 -25.14)"/><path class="cls-1" d="M144.62,63.25a2.2,2.2,0,0,0-1.86.73l.82.81a1.15,1.15,0,0,1,1-.45c.69,0,1,.25,1,.82v.25h-1.2c-1.23,0-1.79.68-1.79,1.51a1.65,1.65,0,0,0,.42,1.16,1.79,1.79,0,0,0,1.32.46,1.58,1.58,0,0,0,1.28-.5v.45h1.26V65.08C146.83,63.86,146.08,63.25,144.62,63.25Zm.92,3.33a.78.78,0,0,1-.2.65,1,1,0,0,1-.77.25c-.53,0-.78-.23-.78-.58s.25-.6.76-.6h1Z" transform="translate(-24 -25.14)"/><path class="cls-1" d="M153.61,63.25a1.67,1.67,0,0,0-1.27.54V61.41h-1.29v7.08h1.29V65.36a.84.84,0,0,1,.87-1,.83.83,0,0,1,.85,1v3.13h1.3V65.18a1.9,1.9,0,0,0-.53-1.47A1.68,1.68,0,0,0,153.61,63.25Z" transform="translate(-24 -25.14)"/><path class="cls-1" d="M160.84,63.8v-.49h-1.26v5.18h1.29V65.37a.86.86,0,0,1,1.52-.65l1-1a1.57,1.57,0,0,0-1.23-.49A1.79,1.79,0,0,0,160.84,63.8Z" transform="translate(-24 -25.14)"/><path class="cls-1" d="M124.67,61.93h-1.29v1.53h-.55v1h.55V67a1.4,1.4,0,0,0,1.5,1.48h.7v-1.1h-.46a.4.4,0,0,1-.45-.46V64.44h.91v-1h-.91Z" transform="translate(-24 -25.14)"/><path class="cls-1" d="M131.89,65.34l-.81-.08c-.39,0-.54-.19-.54-.45s.22-.5.74-.5a1.78,1.78,0,0,1,1.2.35l.79-.81a2.79,2.79,0,0,0-2-.6c-1.06,0-2,.57-2,1.65s.58,1.36,1.49,1.45l.83.08c.42,0,.55.22.55.48s-.47.53-.91.53a1.87,1.87,0,0,1-1.38-.48l-.85.84a2.82,2.82,0,0,0,2.21.75c1.22,0,2.19-.55,2.19-1.69C133.43,66,132.92,65.44,131.89,65.34Z" transform="translate(-24 -25.14)"/><rect class="cls-1" x="113.33" y="36.23" width="1.32" height="1.05"/><path class="cls-1" d="M137.35,68.86c0,.31-.13.47-.46.47h-.5v1.09h.74a1.41,1.41,0,0,0,1.51-1.48V63.46h-1.29Z" transform="translate(-24 -25.14)"/><polygon class="cls-1" points="171.5 37.39 171.5 38.89 173.04 37.54 173.04 43.64 174.43 43.64 174.43 36.05 173.04 36.05 171.5 37.39"/><path class="cls-1" d="M189.16,61.12a2.19,2.19,0,0,0-2.31,2.26v3.2a2.31,2.31,0,0,0,4.62,0v-3.2A2.18,2.18,0,0,0,189.16,61.12Zm.92,5.45a.92.92,0,1,1-1.84,0V63.4a.93.93,0,1,1,1.84,0Z" transform="translate(-24 -25.14)"/><path class="cls-1" d="M206.91,64.86a1.87,1.87,0,0,0,.85-1.57,2.34,2.34,0,0,0-4.66,0,1.87,1.87,0,0,0,.85,1.57,2,2,0,0,0-.95,1.71,2.44,2.44,0,0,0,4.87,0A2,2,0,0,0,206.91,64.86Zm-1.47-2.49a1,1,0,1,1-.95,1A.93.93,0,0,1,205.44,62.37Zm0,5.22a1,1,0,0,1-1.05-1,1,1,0,1,1,2.09,0A1,1,0,0,1,205.44,67.59Z" transform="translate(-24 -25.14)"/><path class="cls-1" d="M183.37,63.33a2.31,2.31,0,0,0-4.61,0h1.38a.93.93,0,1,1,1.85,0,1.31,1.31,0,0,1-.4.92l-2.83,3.29v1.25h4.61V67.53h-2.93l2.12-2.46A2.39,2.39,0,0,0,183.37,63.33Z" transform="translate(-24 -25.14)"/><rect class="cls-1" x="146.4" y="33.55" width="0.95" height="12.62"/><path class="cls-3" d="M180.82,117.45v-2.21H169.4v2.21h4.48v14h2.46v-14Zm-13.36,0v-2.21H157.07v16.25h2.47v-6.87h6.75V122.4h-6.75v-5Zm-14,14V115.24H151v11.41l-7.51-11.41h-2.26v16.25h2.47V120.05l7.51,11.44ZM137.77,126V115.24H135.3V125.9a3.37,3.37,0,1,1-6.73,0V115.24H126.1V126a5.84,5.84,0,0,0,11.67,0m-13.6,5.48-5.82-9.89,5.27-6.36h-3L114,123.41v-8.17h-2.46v16.25H114v-4.73l2.74-3.28,4.56,8ZM108.05,126V115.24h-2.46V125.9a3.37,3.37,0,1,1-6.74,0V115.24H96.39V126a5.83,5.83,0,0,0,11.66,0m-14.28,5.48v-2.22H86.22l7.55-12v-2H83.68v2.21h7.19l-7.5,11.91v2.13Zm-20-11.87c0,2.26-1.48,3.29-3.58,3.29H65.43v-6.58h4.79c2.1,0,3.58,1,3.58,3.29m1.42,11.87L71.29,124A4.18,4.18,0,0,0,75,119.6c0-2.83-2-4.36-4.66-4.36H64.19v16.25h1.24V124H69.9l3.88,7.49Zm-14.34,0v-1.1H52.26v-6.55h7.35v-1.09H52.26v-6.42h8.62v-1.09H51v16.25ZM46,123.36c0,2.15,0,4.5-1.21,5.78a4.57,4.57,0,0,1-3.49,1.25H37.37V116.33H41.3a4.58,4.58,0,0,1,3.49,1.26C46,118.87,46,121.22,46,123.36m1.24,0c0-2.42,0-5.09-1.58-6.64a5.52,5.52,0,0,0-4.06-1.48H36.14v16.25H41.6A5.52,5.52,0,0,0,45.66,130c1.55-1.55,1.58-4.22,1.58-6.64" transform="translate(-24 -25.14)"/><path class="cls-3" d="M207.87,105.79V89.54H205.4V101l-7.51-11.41h-2.26v16.25h2.47V94.36l7.51,11.43Zm-15,0v-2.21h-7.92V98.69h6.75V96.5h-6.75V91.76h7.92V89.54H182.44v16.25Zm-12.93-14V89.54H168.49v2.22H173v14h2.47v-14Zm-10.88,14v-2.21H161.2v-14h-2.47v16.25Zm-13.1,0v-2.21H148V98.69h6.76V96.5H148V91.76h7.92V89.54H145.54v16.25ZM143.16,89.54h-2.6l-2.83,11.62-3.26-11.62h-2l-3.26,11.62-2.83-11.62h-2.61L128,105.79h2.14l3.29-11.39,3.31,11.39h2.15Zm-20.8,11.62A4.31,4.31,0,0,0,121,97.83a5.3,5.3,0,0,0-3-1.21l-1.94-.3a3.14,3.14,0,0,1-1.78-.73,1.89,1.89,0,0,1-.59-1.51c0-1.48,1-2.53,2.94-2.53a4.83,4.83,0,0,1,3.58,1.26l1.55-1.56a6.72,6.72,0,0,0-5-1.84c-3.38,0-5.43,1.91-5.43,4.74a4,4,0,0,0,1.21,3.13,5.48,5.48,0,0,0,3.06,1.3l1.91.27a3.19,3.19,0,0,1,1.78.69,2.07,2.07,0,0,1,.64,1.69c0,1.6-1.21,2.51-3.35,2.51a5.47,5.47,0,0,1-4.18-1.58l-1.62,1.62a7.38,7.38,0,0,0,5.75,2.15c3.43,0,5.85-1.78,5.85-4.77m-13-9.4V89.54H98v2.22h4.47v14h2.46v-14ZM95.46,89.54H93v16.25h2.47Zm-5.27,16.25v-2.21H82.27V98.69H89V96.5H82.27V91.76h7.92V89.54H79.8v16.25ZM74.06,94.08c0,1.51-1.07,2.33-2.65,2.33H67.76V91.76h3.65c1.58,0,2.65.82,2.65,2.32m.25,7a2.41,2.41,0,0,1-2.67,2.49H67.76v-5h3.88a2.39,2.39,0,0,1,2.67,2.46m2.47.12a3.86,3.86,0,0,0-2.45-3.77A3.67,3.67,0,0,0,76.52,94c0-2.74-1.89-4.45-4.9-4.45H65.3v16.25h6.57c2.87,0,4.91-1.59,4.91-4.58m-17.14-6.9a2.48,2.48,0,0,1-2.76,2.54H53.22V91.76h3.66a2.49,2.49,0,0,1,2.76,2.55m3,11.48L58.86,98.6a4.26,4.26,0,0,0,3.24-4.31c0-2.76-2-4.75-5-4.75h-6.3v16.25h2.46V99h3.09l3.42,6.84ZM44,100.43H39l2.54-7.21Zm4.43,5.36-6-16.25h-2l-6,16.25h2.63l1.11-3.26H44.7l1.12,3.26Z" transform="translate(-24 -25.14)"/></svg>